<?xml version="1.0" encoding="UTF-8" standalone="no"?>
<svg
   xmlns:dc="http://purl.org/dc/elements/1.1/"
   xmlns:cc="http://creativecommons.org/ns#"
   xmlns:rdf="http://www.w3.org/1999/02/22-rdf-syntax-ns#"
   xmlns:svg="http://www.w3.org/2000/svg"
   xmlns="http://www.w3.org/2000/svg"
   xmlns:sodipodi="http://sodipodi.sourceforge.net/DTD/sodipodi-0.dtd"
   xmlns:inkscape="http://www.inkscape.org/namespaces/inkscape"
   width="27"
   height="23"
   viewBox="0 0 27 23"
   version="1.1"
   id="svg6"
   sodipodi:docname="checkbox-on-disabled.svg"
   inkscape:version="0.92.4 (5da689c313, 2019-01-14)">
  <metadata
     id="metadata12">
    <rdf:RDF>
      <cc:Work
         rdf:about="">
        <dc:format>image/svg+xml</dc:format>
        <dc:type
           rdf:resource="http://purl.org/dc/dcmitype/StillImage" />
        <dc:title></dc:title>
      </cc:Work>
    </rdf:RDF>
  </metadata>
  <defs
     id="defs10" />
  <sodipodi:namedview
     pagecolor="#ffffff"
     bordercolor="#666666"
     borderopacity="1"
     objecttolerance="10"
     gridtolerance="10"
     guidetolerance="10"
     inkscape:pageopacity="0"
     inkscape:pageshadow="2"
     inkscape:window-width="1440"
     inkscape:window-height="847"
     id="namedview8"
     showgrid="false"
     inkscape:zoom="10.26087"
     inkscape:cx="13.5"
     inkscape:cy="15.728619"
     inkscape:window-x="-8"
     inkscape:window-y="-8"
     inkscape:window-maximized="1"
     inkscape:current-layer="svg6" />
  <path
     fill="#FFFFFF"
     d="M7.285 7.486l-2.829 2.829 7.783 7.783L26.171 4.166l-2.828-2.829-11.104 11.102z"
     id="path2"
     style="fill:#6a6a6a;fill-opacity:1" />
  <path
     fill="#FFFFFF"
     d="M21 20c0 .542-.458 1-1 1H3c-.542 0-1-.458-1-1V3c0-.542.458-1 1-1h16.908L21.493.415A2.96 2.96 0 0 0 20 0H3C1.35 0 0 1.35 0 3v17c0 1.65 1.35 3 3 3h17c1.65 0 3-1.35 3-3v-9.829l-2 2V20z"
     id="path4"
     style="fill:#6a6a6a;fill-opacity:1" />
</svg>
